<svg xmlns="http://www.w3.org/2000/svg" xmlns:xlink="http://www.w3.org/1999/xlink" viewBox="0 0 2097.78 1180"><defs><style>.cls-1{fill:url(#Безымянный_градиент_2);}.cls-13,.cls-2{fill:#306d5e;}.cls-2,.cls-5{opacity:0.56;}.cls-3{fill:#4164c4;}.cls-4,.cls-5{fill:#0071bc;}.cls-6{fill:#1952a5;opacity:0.61;}.cls-7{fill:#17564a;}.cls-13,.cls-7{opacity:0.6;}.cls-8{fill:#187c6b;opacity:0.57;}.cls-9{fill:#725316;}.cls-15,.cls-9{opacity:0.54;}.cls-10{fill:#0e6066;opacity:0.69;}.cls-11{fill:#d9e021;opacity:0.38;}.cls-12{fill:#39777c;opacity:0.31;}.cls-14,.cls-15,.cls-16{fill:#662d91;}.cls-14{opacity:0.32;}.cls-16{opacity:0.44;}.cls-17{fill:#09326d;opacity:0.72;}.cls-18{fill:#313dad;opacity:0.58;}.cls-19{fill:#2944b2;}.cls-19,.cls-32{opacity:0.63;}.cls-20{fill:#2f5947;}.cls-21{fill:#5e4c32;}.cls-22{fill:#4b5926;opacity:0.89;}.cls-23{fill:#444228;}.cls-24{fill:#684141;}.cls-25{opacity:0.75;}.cls-26{fill:#02190c;}.cls-27{fill:#022110;}.cls-28{opacity:0.57;}.cls-29{fill:#000201;}.cls-30{fill:#4c0336;}.cls-31{fill:#095109;}.cls-32{fill:#250444;}.cls-33{opacity:0.29;}.cls-34{fill:#f7931e;}</style><linearGradient id="Безымянный_градиент_2" x1="1047.76" y1="1113.9" x2="1049.06" y2="51.25" gradientUnits="userSpaceOnUse"><stop offset="0.57" stop-color="#1e9cd7"/><stop offset="0.87" stop-color="#0075be"/><stop offset="0.99" stop-color="#005b97"/></linearGradient></defs><g id="Слой_7" data-name="Слой 7"><rect class="cls-1" x="-34.61" y="-36" width="2166" height="1273"/></g><g id="Слой_9" data-name="Слой 9"><polygon class="cls-2" points="2131.39 1246 -58.61 1246 -58.61 327 65.19 327 198.39 377 305.39 327 403.39 327 531.39 391 597.39 327 758.39 327 982.39 327 1142.39 387 1416.39 391 1521.39 462 1689.39 462 1861.39 351.17 1930.39 401 2030.89 336 2131.39 327 2131.39 1246"/></g><g id="Слой_6" data-name="Слой 6"><polygon class="cls-3" points="1935.39 1194 1778.39 1194 1778.39 241 1905.62 241 1935.39 263 1935.39 1194"/><rect class="cls-4" x="393.39" y="327" width="151" height="900"/><polygon class="cls-4" points="1288.39 1237 1136.39 1255 1136.39 345 1174.44 327 1288.39 327 1288.39 1237"/><polygon class="cls-4" points="1622.39 1237 1778.39 1237 1778.39 301 1755.39 285 1622.39 285 1622.39 1237"/><rect class="cls-5" x="123.39" y="-12" width="182" height="1206"/><rect class="cls-6" x="597.39" y="-12" width="218" height="1206"/><rect class="cls-7" x="1215.39" y="-55" width="201" height="1273"/><rect class="cls-8" x="1930.39" y="-36" width="201" height="1273"/><polygon class="cls-9" points="1160.39 1206 976.39 1206 976.39 180 1137.06 180 1160.39 198 1160.39 1206"/><polygon class="cls-10" points="531.39 1218 393.39 1218 393.39 129 509.84 129 531.39 151 531.39 1218"/><polygon class="cls-11" points="103.39 871 -34.61 871 -34.61 129 103.39 176 103.39 871"/></g><g id="Слой_8" data-name="Слой 8"><polygon class="cls-12" points="0.53 1228 2115.39 1228.5 2115.39 159.4 1983.23 203.81 1857.52 196.05 1806.69 217.24 1692.99 282.32 1617.68 229.64 1526.42 239.97 1498.49 309.17 1431.67 239.97 1345.89 283.35 1213.24 292.65 1179.82 194.52 1088.06 147 994.3 249.26 911.02 320.54 833.22 249.26 782.86 292.65 687.41 212.67 586.54 296.99 425.15 296.99 289.14 177.99 223.31 215.17 97.07 147.35 0.39 161.46 0.53 1228"/><path class="cls-13" d="M2144.39,1197h-2220V547s143,28,161,0,72,59,72,59,26-77,50-25c13.51,29.28,25.91-68,55.95-34s52.79-4.35,86.05,118c19.85,73,76.33-7.58,97,28,61,105-18-67,49-44,27.2,9.34,26-118.48,63-76,47,54-44,196,51,17,46.64-87.88,63,128,113,103,14-7,72-122,130-54,20.83-53,55.36-9,81-39s85-34,103,0,91.21-24.66,107,32c17,61,32,37,41,21,18.32-32.56,132.5-86,152-42s63-8,80,30,31.25-36,76-50,58,9,107,22c51.45,13.65,110.75-19.16,148-23,47.59-4.9,136,51,136,51s78.15-52.08,108-60c98-26,154,19,154,19Z"/></g><g id="Слой_4" data-name="Слой 4"><polygon class="cls-14" points="1521.39 1197 1363.39 1197 1363.39 285 1498.75 285 1521.39 303 1521.39 1197"/><polygon class="cls-15" points="207.39 1218 403.39 1218 403.39 263 236.44 263 207.39 285 207.39 1218"/><polygon class="cls-16" points="717.39 1218 914.39 1218 914.39 308 876.32 285 717.39 285 717.39 1218"/><polygon class="cls-17" points="85.39 1197 344.39 1197 344.39 519 305.39 506 85.39 525 85.39 1197"/><polygon class="cls-18" points="1193.39 1195 852.39 1195 852.39 462 1163.39 462 1193.39 494.64 1193.39 1195"/><polygon class="cls-19" points="1804.39 1206 2115.39 1206 2115.39 451 1839.05 451 1804.39 476 1804.39 1206"/></g><g id="Слой_2" data-name="Слой 2"><polygon class="cls-20" points="243.39 1206 0.39 1206 0.39 797 85.39 751 243.39 751 243.39 1206"/><polygon class="cls-21" points="334.39 853 393.51 793 995.39 793 1068.39 853 1068.39 1195 334.39 1195 334.39 853"/><polygon class="cls-22" points="1160.39 506 1363.39 506 1416.39 531 1416.39 1195 1160.39 1195 1160.39 506"/><polygon class="cls-23" points="1492.39 761 1521.39 724 2115.39 724 2115.39 1195 1492.39 1195 1492.39 761"/><polygon class="cls-24" points="1155.39 838 1487.39 838 1534.39 861 1534.39 1182 1155.39 1182 1155.39 838"/><g id="Слой_10" data-name="Слой 10"><g class="cls-25"><path class="cls-26" d="M1172.39,876c0,179.87-23.41,234.93-48.86,243.68-1,.35,1.18,44.5-1.26,57.32-3.9,20.42-12.85,13-14.48,13s4.21-69.41,2.37-70.2c-27.59-11.93-61.13-111.46-40.25-241.3,5.66-35.16,18.86-68,24.51-94.5,8.27-38.76,9.92-64,26.73-64,16,0,31.82,27.32,41.22,63C1169.55,810.28,1172.39,838.07,1172.39,876Z"/></g><path class="cls-27" d="M210.52,1145.66a103.3,103.3,0,0,1-20-2.15c-16.41-3.28-26.5-34.2-32.08-59.56-6.59-30-10.52-69.2-10.52-105,0-30.53,7.57-62.06,20.76-86.51,12.49-23.16,28.47-37,42.74-37,13.57,0,17.81,6.32,26.26,18.91A220.21,220.21,0,0,0,260,903.34c9.29,10.07,7.3,31.88,5.7,49.41-.81,8.85-1.51,16.49-.83,21.81l.19,1.45c5.74,44.82,15.35,119.83-13.65,152.78C241.57,1140,227.81,1145.66,210.52,1145.66Z"/><path d="M211.39,856c13.3,0,17.49,6.24,25.85,18.68a219.87,219.87,0,0,0,22.41,29c9.14,9.9,7.16,31.6,5.57,49-.81,8.87-1.51,16.54-.82,21.92l.18,1.44c3,23.63,6.8,53,6.26,81.34-.64,33.4-7.11,56.64-19.79,71-9.75,11.08-23.39,16.7-40.53,16.7a102.27,102.27,0,0,1-19.93-2.14c-12.78-2.56-23.74-23-31.69-59.18-6.58-29.93-10.51-69.13-10.51-104.84,0-30.45,7.54-61.89,20.7-86.27,12.4-23,28.22-36.73,42.3-36.73m0-1c-29.82,0-64,58-64,124s13.76,159.15,43,165a103.21,103.21,0,0,0,20.13,2.16c77.47,0,62.64-111,54.87-171.66-2.08-16.22,9-56.34-5-71.5-28.9-31.34-26.92-48-49-48Z"/><g class="cls-28"><path class="cls-29" d="M1843.39,849c0,77.87-66.62,245.47-95,204-26-38-95-76-79.1-140.29,10.51-42.48-21.9-86.71-4.9-113.71,13.7-21.76,11.87-74.65,22-104,18.88-54.73,62.94-67.62,92-40,22.13,21,19.52,64.29,37,85C1842.39,772,1843.39,804.13,1843.39,849Z"/></g><path class="cls-29" d="M1727.39,709c-.31,0,17.6,39.63,22,80.89,3,28.11-1.34,47-3,42.52-10-27-35.36-52.22-36-51.85-.47.27,29,40.85,34,70.52,4,23.92,4,49.24,1,41.92-7-17.08-51-59-51-59,10,12,38.88,41.59,51,76,5,14.13,5.64,64.25,6,84,.13,7.28-58.1-57-34-24,5.14,7,34.47,37.73,34,47-3.78,75.34-18.22,107.75-2,120.3,10.53,8.15,29.27,4.27,31-1,1.49-4.57-10-9-14-21.78-3.27-10.54.72-19.81,3-27,5.22-16.37.59-18.93-3-86.08-1.55-29.06-4.28-49.37-2-56.45,10.3-32,46.37-43.13,45-45-1.56-2.14-29,4.47-46,28-4.05,5.61,0-25.12-3-52-1.56-14-1.25-20,0-26,5.18-24.66,60.77-52.69,61-52s-34,12.15-62,36c-1.12,1-2.2-7.89,2-24.4,8.9-35,7.95-81.64,7-82.6s-7.32,72.62-10,61C1751.39,757.66,1727.82,709,1727.39,709Z"/></g></g><g id="Слой_3" data-name="Слой 3"><path class="cls-30" d="M1155.39,1086h89.27l37.29-33,49.28,33h68.64l-2.48-109-19-9a11,11,0,0,1-7,3h-8s-8,0-6-7,21,0,21,0l25,12,2,110h49.09l34,28h62.77l29.4-28h83.64l51-26,50.27,26h38.83v120h-649Z"/><polygon class="cls-30" points="2057.39 938 1861.39 931 1787.39 1019.75 1787.39 1197 2122.39 1197 2122.39 1014.75 2057.39 938"/><path class="cls-31" d="M408.11,1024h30.28L395,980l-74.41,1.08L293.39,963l-33.14,19-116.36,1.68L121.39,963,93.05,984.38-18.42,986l-42.13,38H-32.9v65.29l-48.71,35.13,48.71-.42v82h441V1096.15l23.7.85v-32l-23.7-.4Z"/><path class="cls-32" d="M1095.39,850.06l-81,69.08-208-.83-63-69.31-101.52,1.47L608.39,885h-108l-51,65-65,1.11-59-69.2-58,70.89-39.32.57-70.68-88.52-110-.85-82,54,13,304,1023-17.06h183V947.88Z"/><g class="cls-33"><polygon class="cls-34" points="1987.39 1078.92 1994.81 1077.63 1994.81 1059.86 1987.39 1059.53 1987.39 1078.92"/><polygon class="cls-34" points="1996 1077.42 2002.39 1076.39 2002.39 1059.71 1996 1059.57 1996 1077.42"/><polygon class="cls-34" points="1996 1057.45 2002.39 1058.05 2002.39 1048.09 1996 1048.21 1996 1057.45"/><polygon class="cls-34" points="1987.39 1057.43 1994.81 1057.7 1994.81 1048.01 1987.39 1048 1987.39 1057.43"/></g></g></svg>