<svg xmlns="http://www.w3.org/2000/svg" viewBox="0 0 1180 1180"><defs><style>.cls-1{opacity:0.8;}.cls-2{fill:red;}.cls-3{fill:#ff0;}.cls-4{fill:#f9e132;}.cls-11,.cls-12,.cls-13,.cls-5{fill:#fff;}.cls-5{opacity:0.49;}.cls-6{fill:none;stroke:#ff0;stroke-miterlimit:10;}.cls-7{fill:#0000fc;}.cls-8{opacity:0.89;}.cls-9{fill:#0606b7;}.cls-10{fill:#070799;}.cls-11{opacity:0.2;}.cls-12{opacity:0.17;}</style></defs><g id="Слой_2" data-name="Слой 2"><g class="cls-1"><circle class="cls-2" cx="657" cy="547" r="473"/></g><g class="cls-1"><circle class="cls-3" cx="531" cy="562" r="473"/></g><g class="cls-1"><path class="cls-2" d="M838.43,964.38c-22.49,16.89-17.87,53.31-2.69,71.86,12.94,15.83,70.15-13,75.38-41C909.28,975.91,860.92,947.49,838.43,964.38Z"/></g><g class="cls-1"><path class="cls-3" d="M255.72,923.75c-22.69-16.63-56.2-1.63-69.55,18.28-11.39,17,32.82,63.34,61.12,60.24C265.25,994.89,278.41,940.37,255.72,923.75Z"/></g><g class="cls-1"><path class="cls-4" d="M235.75,951.74c-17.46-15.81-36.22-18.88-46.47-12.23-10.78,7-.71,29.23,16.75,45s42.16,23,46.47,12.23C257,985.43,253.21,967.56,235.75,951.74ZM208,981.5c-15.63-12.28-25.48-34.7-15.34-39.09,9.38-4.06,22.57-2.3,38.21,10s20.47,27,19.14,37.16C247.94,1005.36,223.65,993.78,208,981.5Z"/></g><path class="cls-5" d="M167.56,290.31c26.29-82.41,118.73-136.09,186-155.53,137.13-39.65,185.25,40.32,81.54,123.13-74.5,59.48-52.71,55.29-93.7,87.85C148.25,499.13,142.53,368.8,167.56,290.31Z"/><path class="cls-6" d="M862,967.67c51.35-22.28,115-12.92,157.72,23.21,11.56,9.77,21.77,21.49,28,35.3,9.61,21.41,8.91,46,15.41,68.49,13.53,46.94,67.3,80.66,116.11,78.77-6.63-13.8-20.45-22.68-34.45-28.85-63.76-28.06-137-12.81-205.85-1.89a1487.93,1487.93,0,0,1-298.17,16.94c-14-.62-28.21-1.46-41.56-5.77-12.79-4.12-24.35-11.26-35.75-18.36q-25.14-15.67-50.17-31.53"/><path class="cls-6" d="M252.19,929.19c-25.13-14.5-58.08-14.28-83,.57s-40.81,43.72-40,72.72c.86,30.47,19,58.54,42.82,77.54s53,30.09,82.12,39c150.69,45.88,311.69,39.58,469,31.28,49.49-2.61,99.12-5.39,147.87-14.32,70.43-12.91,141.68-38.64,211.78-24a190.72,190.72,0,0,1,100.66,57.1"/></g><g id="Слой_1" data-name="Слой 1"><g class="cls-1"><circle class="cls-7" cx="604" cy="649" r="473"/></g><g class="cls-8"><path class="cls-9" d="M513.69,1066.46C488,1055,458.41,1076.73,449.55,1099,442,1118,495,1154,522,1145,538,1134,539.37,1077.93,513.69,1066.46Z"/></g><path class="cls-10" d="M500.07,1098c-20.4-11.78-39.38-10.82-48-2.15-9.07,9.11,5.46,28.72,25.87,40.5s46.06,13.61,48,2.15C528,1126.49,520.47,1109.82,500.07,1098ZM479.24,1133c-17.88-8.71-32.22-28.55-23.24-35,8.31-6,21.58-7,39.45,1.71s25.72,22.1,26.55,32.29C523.29,1147.88,497.11,1141.69,479.24,1133Z"/><path class="cls-11" d="M160,486c48.24-128.78,135.46-227.13,264-276,192-73,524-18,379,204C725.93,532,576.68,812.34,401,867,311,895,48,785,160,486Z"/><path class="cls-12" d="M210,414c36.75-114.45,166-189,260-216,191.72-55.07,259,56,114,171-104.16,82.61-73.69,76.79-131,122C183,704,175,523,210,414Z"/><path class="cls-13" d="M394.43,489.79q-15.37-.18-30.76-.06,5.31-44.62,11.49-89.12c-3.78,0-5.68,0-9.46,0q-6,44.55-11.17,89.19-15.48.15-31,.51,5.78-55.9,12.93-111.63c24.7-.41,49.35-.44,74,.11Q401.74,434.2,394.43,489.79Z"/><path class="cls-13" d="M423.31,379.27q16.13.69,32.22,1.67c8.72.59,15.3,1.76,19.75,3.38s7.62,3.72,9.53,6.24a15.77,15.77,0,0,1,3.15,8.77c.2,3.33-.36,8.4-1.65,15.21-.72,3.79-1.08,5.68-1.79,9.47q-1.95,10.44-5.18,15c-2.16,3.05-5.49,5.24-10,6.62s-10.15,1.84-16.94,1.42c-3.33-.2-5-.29-8.34-.47q-3.54,22.17-6.89,44.38-15.24-.7-30.53-1Q414.25,434.51,423.31,379.27ZM452,399.71q-2.46,14-4.79,28c.88.1,1.65.17,2.29.2,2.88.17,5-.34,6.33-1.56s2.36-3.85,3.07-7.92c.63-3.6.95-5.4,1.59-9s.45-6.23-.66-7.45S456.08,400,452,399.71Z"/><path class="cls-13" d="M556.4,392.24q-3.1,55.11-5.47,110.23-15.45-2.3-30.95-4.28c.82-7.85,1.24-11.78,2.09-19.63-4.38-.57-6.57-.84-11-1.38-2.22,7.69-3.31,11.53-5.47,19.23-10.46-1.26-21-2.3-31.46-3.14q17-53.94,36.28-107.08Q533.45,389,556.4,392.24ZM525,459.3c1.11-15.37,2.8-30.68,4.56-46-5.42,14.76-10.83,29.53-15.2,44.64C518.66,458.48,520.79,458.75,525,459.3Z"/><path class="cls-13" d="M623.77,451.69q6.18,3.31,8.28,8.59c1.4,3.51.65,11-2.14,22.37q-3.12,12.71-7.91,19.11a23.51,23.51,0,0,1-13.3,8.66c-5.68,1.51-12.5,1.55-20.52.18-9.11-1.55-16-4.13-20.6-7.81s-7.35-7.7-8.14-12.09-.12-11.71,2.08-21.94c.73-3.4,1.1-5.1,1.84-8.5q14.71,2.24,29.4,4.76c-1.6,7-2.39,10.44-4,17.4q-1.56,6.94-1.08,9c.32,1.36,1.51,2.21,3.56,2.57,2.24.38,3.91-.15,5-1.61s2.38-5.54,3.92-12.24c.69-3,1-4.44,1.72-7.39q1.44-6.15.59-9.25a6.88,6.88,0,0,0-3.63-4.53c-1.85-.94-5.63-1.95-11.34-3,1.42-6.23,2.15-9.33,3.6-15.55,7,1.18,11.45,1.71,13.22,1.52a6.12,6.12,0,0,0,4.36-2.54c1.13-1.49,2.11-4,3-7.45.58-2.37.87-3.56,1.46-5.93.92-3.74,1.11-6.28.54-7.62a4.37,4.37,0,0,0-3.59-2.5c-2.07-.37-3.65,0-4.72,1.13s-2.11,3.73-3.1,7.82c-.85,3.51-1.28,5.27-2.12,8.78q-14.86-2.58-29.79-4.88c.83-3.66,1.25-5.5,2.09-9.16q3.52-15.37,12.75-19.51c6.14-2.75,15.09-3,26.48-1.12,9.42,1.57,21.61,4.59,27.2,12.84,3.83,5.66,4.48,13.29,2.2,22.09q-2.31,8.91-6,12.36T623.77,451.69Z"/><path class="cls-13" d="M712.52,553.88c-8-2-12-3-20-4.92,1.93-7.26,2.9-10.9,4.87-18.16-15.81-3.81-31.68-7.34-47.59-10.69-1.82,7.32-2.72,11-4.5,18.3-8.1-1.69-12.16-2.51-20.29-4.1q4.78-20.31,9.72-40.58l6.13,1.23a192.06,192.06,0,0,0,16.77-32.68,463.22,463.22,0,0,0,15.71-45.73c.35-1.28.53-1.92.89-3.2q34.29,7.48,68.27,16.1-12.75,41.26-24.66,82.79c2.41.6,3.62.9,6,1.52Q718.08,533.8,712.52,553.88Zm-24.39-48.8q8.52-31.29,17.5-62.46c-3.62-.85-5.43-1.28-9.06-2.11l-.22.78a410.27,410.27,0,0,1-24.12,60.18C678.6,502.89,681.78,503.61,688.13,505.08Z"/><path class="cls-13" d="M828.11,455.46q-18.21,50.75-34.91,102-14.37-4.74-28.9-9Q771,526.67,777.93,505c-3.54-1.08-5.31-1.61-8.85-2.65q-6.84,21.77-13.45,43.59-14.45-4.08-29-7.82,15.06-52.44,31.54-104.44,15.32,4.17,30.49,8.87-6.23,18.38-12.21,36.82c3.58,1.07,5.37,1.62,8.95,2.73q6.08-18.39,12.36-36.7Q813,450.21,828.11,455.46Z"/><path class="cls-13" d="M868.73,585c-9.51-3.76-14.28-5.62-23.84-9.24q8.15-23,16.6-45.86-16,20-31.5,40.32c-10.06-3.68-15.11-5.47-25.21-8.92q17-51.11,35.49-101.67c10.11,3.59,15.15,5.43,25.2,9.19q-8.64,22.67-16.94,45.44,16.66-19.71,33.75-39.06c10,3.85,15,5.81,24.93,9.76Q887.29,534.75,868.73,585Z"/><path class="cls-13" d="M919,489.72q14.78,6,29.49,12-8.71,20.94-17.22,42c5.46,2.13,9.35.61,11.72-4.58,3.42-7.66,5.14-11.48,8.61-19.12,3.18-7.06,6.8-11.22,10.8-12.48q13.35,5.55,26.69,11.15C985.48,520,982,524.45,978.83,532c-2.88,6.81-4.31,10.22-7.15,17-4.19,11.13-16.39,13.09-26.54,9.46,9.81,4.81,16.74,15.07,11.67,25.9-2.68,6.3-4,9.45-6.65,15.75-3.12,7.49-4,13.38-2.86,17.64-10.19-4.4-15.32-6.61-25.63-11-2-3.78-1.64-9.25,1.21-16.42,3.08-7.76,4.63-11.64,7.76-19.39a8.32,8.32,0,0,0-.08-7,10.31,10.31,0,0,0-5.47-5q-8.49,21-16.78,42.11-14.09-5.91-28.26-11.63Q898.88,539.38,919,489.72Z"/><path class="cls-13" d="M306.57,548.15q15.12-.33,30.24-.56c9.52-.15,16.63.49,21.36,1.87A18.11,18.11,0,0,1,369.06,558c2.52,4.31,3.27,11.27,2.3,20.86q-1,9.74-4.46,13.58t-12.82,5.95q10,2.19,13.12,7.44c2.09,3.49,2.78,8.85,2.13,16.06-.38,4.11-.56,6.17-.92,10.28q-1,11.24-4,16.64a15.62,15.62,0,0,1-8.76,7.42c-3.83,1.34-11.51,2-23.14,2.13l-33.62.28Q302.07,603.35,306.57,548.15Zm25,60.37q-1.23,15.48-2.33,31c4.12-.18,6.78-.84,8-2s2-4,2.33-8.43c.32-4.13.49-6.2.82-10.33q.57-7.11-.84-8.61T331.61,608.52Zm3.53-41.93c-.89,9.88-1.31,14.81-2.13,24.68,1.27-.07,2.26-.1,3-.11,2.92,0,4.83-.76,5.75-2.16s1.67-5.39,2.26-12q.48-5.21-.32-7.29a4,4,0,0,0-2.35-2.61A23.1,23.1,0,0,0,335.14,566.59Z"/><path class="cls-13" d="M413.15,547.6q14.91.33,29.82,1-3.2,23.28-6.05,46.59c5.5.09,8.72-2.76,9.68-8.6,1.36-8.59,2.06-12.88,3.48-21.46,1.28-7.92,3.65-13.18,7.06-15.76,11,.67,16.44,1.08,27.39,2.07q-4.65,3.62-6.5,16.12c-1.09,7.52-1.63,11.28-2.68,18.8-1.24,11.58-11.31,18-22.3,18.16,10.84,1.31,19,9.67,16.76,21-1,7-1.5,10.48-2.46,17.47-1.14,8.31-.63,14.31,1.46,18-10.4-.71-15.6-1-26-1.44-2.72-2.91-3.64-8.32-2.71-16.27,1-8.61,1.52-12.91,2.58-21.52a7.89,7.89,0,0,0-7.84-9.5q-2.93,23.37-5.52,46.77-14.19-.48-28.4-.65Q406.31,602.91,413.15,547.6Z"/><path class="cls-13" d="M541.73,558.52q-1.65,55.1-2.56,110.19c-9.53-1.46-19.11-2.79-28.69-3.89.57-7.88.86-11.82,1.45-19.69-4.06-.48-6.08-.71-10.14-1.15-1.85,7.75-2.76,11.63-4.55,19.4q-14.5-1.49-29.06-2.42Q482.46,606.63,499,553C513.26,554.62,527.5,556.51,541.73,558.52Zm-27.52,67.31c.65-15.37,1.86-30.69,3.14-46-4.69,14.84-9.35,29.71-13,44.85C508.3,625.11,510.27,625.34,514.21,625.83Z"/><path class="cls-13" d="M583.44,628.37q-9-1.38-10.42,6-2.67,14.11-5.21,28.24c-.68,3.76-1.56,6.36-2.66,7.79s-1.83,2.12-2.19,2.06c-9.21-1.53-13.83-2.26-23.09-3.65,2.48-2.58,4.19-6.71,5.16-12.38,1.65-9.69,2.49-14.53,4.2-24.21q1.37-7.71,6.49-11.08c3.41-2.24,8.79-3.37,16.12-3.32l0-.14c-10.34-1.64-18.71-9.6-16.09-20.66,1.71-9.12,2.58-13.67,4.35-22.78q1.64-8.44-.67-13.11c9.71,1.51,14.55,2.31,24.21,4,.65.38,1.14,1.47,1.5,3.24a20,20,0,0,1-.47,7.5c-2.19,10.67-3.27,16-5.38,26.68-1,4.9,1.51,7.94,7.41,9.17q4.49-22.25,9.17-44.44,14.61,2.61,29.15,5.51-5,22.11-9.73,44.26c6,1,9.56-.91,10.63-5.78,2.33-10.61,3.52-15.91,5.93-26.51.84-3.68,1.85-6.21,3-7.57s2-2,2.39-1.92c9.56,2,14.32,3,23.82,5.11-2.72,2.29-4.74,6.22-6.06,11.76-2.15,9-3.2,13.49-5.29,22.49-2.07,11.13-12.75,15.45-23,13.29l0,.14c6.77,2.57,11.29,5.53,13.59,8.82s2.86,7.47,1.74,12.55c-2.12,9.56-3.16,14.34-5.21,23.91-1.2,5.6-1.11,10,.24,13.31-9.06-2-13.6-2.91-22.71-4.74-.64-.44-1.11-1.57-1.41-3.37a21.85,21.85,0,0,1,.52-7.5q2.84-14.06,5.79-28.08c1-4.87-1.44-8-7.45-9.3q-4.78,22.93-9.26,45.93-13.87-2.68-27.79-5.1Q579,651.39,583.44,628.37Z"/><path class="cls-13" d="M716.57,725.4c-7.35-2-11-3-18.42-4.94,1.73-7.27,2.61-10.9,4.39-18.15q-21.84-5.65-43.78-10.83c-1.63,7.31-2.43,11-4,18.28-7.45-1.72-11.18-2.56-18.67-4.19q4.21-20.28,8.67-40.51l5.65,1.25a196.16,196.16,0,0,0,15.24-32.62c5.57-14.91,10.14-30.18,14.26-45.67.32-1.28.48-1.92.81-3.2q31.65,7.57,63,16.15-11.67,41.28-22.47,82.79l5.54,1.53Q721.57,705.32,716.57,725.4ZM694,676.57q7.71-31.27,15.87-62.43c-3.34-.86-5-1.28-8.36-2.12l-.21.78a432.33,432.33,0,0,1-21.93,60.13C685.19,674.36,688.12,675.08,694,676.57Z"/><path class="cls-13" d="M798.63,705.11q-3.5,11.45-8,15.41a13.19,13.19,0,0,1-10.84,3.18c-4.26-.52-10.78-2.24-19.57-5-10.22-3.18-20.51-6.18-30.82-9.08q13.68-52.47,28.79-104.54,14.16,4.14,28.18,8.8-5.48,17.64-10.76,35.33l4.26,1.38c8.51,2.79,14.78,5.51,18.83,8a16.5,16.5,0,0,1,7.72,9.87c1.1,4.08.52,9.65-1.69,16.72C802.3,693.16,801.07,697.14,798.63,705.11Zm-26-12.35c1.73-6,2.6-9,4.36-14.93q1.9-6.51,1-8.34c-.61-1.23-3-2.59-7.09-4q-5,17-9.75,34.07c3.4,1.06,5.83,1.36,7.29.87S771.27,697.36,772.6,692.76Zm54.24,49.67q-13.14-5.22-26.44-10.07Q816,681.18,833.07,630.49q14,5.26,27.82,10.87Q843.16,691.66,826.84,742.43Z"/><path class="cls-13" d="M894.51,771.11c-8.6-3.84-12.92-5.75-21.6-9.52q7.92-22.85,16.14-45.6-15.1,19.69-29.67,39.79c-9.13-3.87-13.72-5.78-22.92-9.51Q853,695.62,871,645.46c9.22,3.77,13.81,5.69,23,9.56q-8.4,22.53-16.47,45.17,15.64-19.5,31.76-38.65c9.09,3.92,13.62,5.89,22.62,9.84Q912.55,721,894.51,771.11Zm22.66-131.39c4.44,1.9,6.65,2.85,11.06,4.77q-3.66,8.18-10.39,11.22c-4.48,2-9.53,1.84-15.19-.58s-9.51-6-11.39-10.78-1.93-10-.11-15.64c4.48,1.86,6.71,2.8,11.17,4.69q-2.42,8.76,4.18,11.57T917.17,639.72Z"/><path class="cls-13" d="M544.9,855.81c-7-1.11-10.56-1.61-17.61-2.54.88-7.47,1.33-11.2,2.24-18.67q-20.78-2.64-41.62-4.46c-.75,7.54-1.12,11.31-1.83,18.86-7.05-.56-10.57-.8-17.64-1.24q1.81-20.91,3.8-41.81l5.35.36a222,222,0,0,0,10.76-34.85c3.63-15.68,6.31-31.58,8.57-47.61.17-1.32.26-2,.43-3.3,20.27,2.12,40.36,5,60.48,8.21q-6.8,42.45-12.74,85l5.33.87Q547.53,835.23,544.9,855.81ZM519,810.12q4-32.16,8.47-64.26c-3.21-.44-4.81-.65-8-1.05,0,.32-.07.48-.11.81A484.73,484.73,0,0,1,505,808.56C510.61,809.13,513.4,809.44,519,810.12Z"/><path class="cls-13" d="M621.33,805.72c-1.94,10.71-3.5,18.25-4.74,22.61a26.49,26.49,0,0,1-6.45,11.29,23.27,23.27,0,0,1-11.28,6.44,34.09,34.09,0,0,1-15,.08,36.74,36.74,0,0,1-13.75-5.48,25.74,25.74,0,0,1-9-10.28,27.76,27.76,0,0,1-2.85-13.08A229.58,229.58,0,0,1,561,794c1.11-7.35,1.67-11,2.82-18.37a225.93,225.93,0,0,1,4.37-22.79,25.92,25.92,0,0,1,6.63-11.48,24.71,24.71,0,0,1,11.93-6.63,36.75,36.75,0,0,1,15.89,0A37.88,37.88,0,0,1,617,740.48a25.35,25.35,0,0,1,8.94,10.63,26.66,26.66,0,0,1,2.36,13.19c-.34,4.49-1.57,12.22-3.61,23.19C623.32,794.78,622.65,798.43,621.33,805.72ZM601.44,765.2c.88-5,1.2-8.21.92-9.7a3.28,3.28,0,0,0-2.88-2.73,3.59,3.59,0,0,0-3.5,1.06c-.94,1-1.9,4.23-2.85,9.73q-4.35,25-8.33,50c-1,6.22-1.35,10.1-1.11,11.65a3.28,3.28,0,0,0,2.93,2.81,3.12,3.12,0,0,0,3.76-1.85c.76-1.58,1.64-5.52,2.67-11.82Q597.09,789.74,601.44,765.2Z"/><path class="cls-13" d="M724.25,766.37Q711.43,818.78,700,871.5c-8.62-2.44-12.94-3.63-21.62-6q7.27-35.71,15.17-71.29-12.36,34.37-23.85,69c-6.17-1.6-9.27-2.39-15.47-3.92q2.07-36.15,4.46-72.26Q651.58,822,645,857.1c-8.77-2.11-13.17-3.13-22-5.1q9.32-53.36,20.07-106.43,17.16,3.9,34.24,8.19-.58,9.91-1.82,23.26c-.85,11.14-1.26,16.7-2.07,27.84q8.17-24,16.79-47.79Q707.32,761.51,724.25,766.37Z"/></g></svg>